<svg width="76" height="85" viewBox="0 0 76 85" fill="none" xmlns="http://www.w3.org/2000/svg">
<path d="M64.68 63.01C67.0935 63.01 69.05 61.0535 69.05 58.64C69.05 56.2265 67.0935 54.27 64.68 54.27C62.2665 54.27 60.31 56.2265 60.31 58.64C60.31 61.0535 62.2665 63.01 64.68 63.01Z" fill="#B40F2C"/>
<path d="M32.16 37.58C41.7256 37.58 49.48 29.8256 49.48 20.26C49.48 10.6944 41.7256 2.94 32.16 2.94C22.5945 2.94 14.84 10.6944 14.84 20.26C14.84 29.8256 22.5945 37.58 32.16 37.58Z" stroke="#746761" stroke-width="5" stroke-linejoin="bevel"/>
<path d="M52.74 52.28C59.1907 52.28 64.42 47.0507 64.42 40.6C64.42 34.1493 59.1907 28.92 52.74 28.92C46.2893 28.92 41.06 34.1493 41.06 40.6C41.06 47.0507 46.2893 52.28 52.74 52.28Z" stroke="#746761" stroke-width="5" stroke-linejoin="bevel"/>
<path d="M12.72 59.56C17.8452 59.56 22 55.4052 22 50.28C22 45.1548 17.8452 41 12.72 41C7.5948 41 3.44 45.1548 3.44 50.28C3.44 55.4052 7.5948 59.56 12.72 59.56Z" stroke="#746761" stroke-width="5" stroke-linejoin="bevel"/>
<path d="M53.58 81.93C58.0866 81.93 61.74 78.2766 61.74 73.77C61.74 69.2633 58.0866 65.61 53.58 65.61C49.0733 65.61 45.42 69.2633 45.42 73.77C45.42 78.2766 49.0733 81.93 53.58 81.93Z" stroke="#746761" stroke-width="5" stroke-linejoin="bevel"/>
<path d="M41.92 60.61L36.82 64.93L32.5 70.03L28.19 64.93L23.09 60.61L28.19 56.3L32.5 51.2L36.82 56.3L41.92 60.61Z" fill="#B40F2C"/>
<path d="M75.34 17.62L70.78 21.48L66.92 26.04L63.06 21.48L58.49 17.62L63.06 13.75L66.92 9.19L70.78 13.75L75.34 17.62Z" fill="#B40F2C"/>
</svg>
