<svg width="78" height="75" viewBox="0 0 78 75" fill="none" xmlns="http://www.w3.org/2000/svg">
<path d="M63.08 20.21H74.76V59.35H54.83L50.17 69.61L41.12 59.35H31.34" stroke="#746761" stroke-width="5" stroke-miterlimit="10"/>
<path d="M3.09003 42.3V3.16H55.22V42.3H35.3L26.63 52.56L21.59 42.3H3.09003Z" stroke="#746761" stroke-width="5" stroke-miterlimit="10"/>
<path d="M16.13 27.78C18.6153 27.78 20.63 25.7653 20.63 23.28C20.63 20.7947 18.6153 18.78 16.13 18.78C13.6447 18.78 11.63 20.7947 11.63 23.28C11.63 25.7653 13.6447 27.78 16.13 27.78Z" fill="#B40F2C"/>
<path d="M29.23 27.78C31.7153 27.78 33.73 25.7653 33.73 23.28C33.73 20.7947 31.7153 18.78 29.23 18.78C26.7447 18.78 24.73 20.7947 24.73 23.28C24.73 25.7653 26.7447 27.78 29.23 27.78Z" fill="#B40F2C"/>
<path d="M42.33 27.78C44.8153 27.78 46.83 25.7653 46.83 23.28C46.83 20.7947 44.8153 18.78 42.33 18.78C39.8447 18.78 37.83 20.7947 37.83 23.28C37.83 25.7653 39.8447 27.78 42.33 27.78Z" fill="#B40F2C"/>
</svg>
