<svg width="76" height="70" viewBox="0 0 76 70" fill="none" xmlns="http://www.w3.org/2000/svg">
<path d="M45.45 64.95L40.76 45.47L44.12 37.74H31.89L35.24 45.47L30.55 64.95H45.45Z" fill="#B40F2C"/>
<path d="M38 36.07C47.2618 36.07 54.77 28.5618 54.77 19.3C54.77 10.0382 47.2618 2.53 38 2.53C28.7382 2.53 21.23 10.0382 21.23 19.3C21.23 28.5618 28.7382 36.07 38 36.07Z" stroke="#746761" stroke-width="5" stroke-miterlimit="10"/>
<path d="M46.65 36.41C54.17 38.14 61.87 40.61 66.53 45.92C71.19 51.23 72.81 59.53 72.81 66.81H3.19C3.19 59.53 4.81 51.24 9.47 45.92C14.13 40.6 21.83 38.14 29.35 36.41H46.65Z" stroke="#746761" stroke-width="5" stroke-miterlimit="10"/>
</svg>
