<svg width="52" height="85" viewBox="0 0 52 85" fill="none" xmlns="http://www.w3.org/2000/svg">
<path d="M45.71 84.72L35.86 79.34L26 84.72L16.14 79.34L6.28998 84.72V82.08V79.44V76.8V75.22L16.14 69.84L26 75.22L35.86 69.84L45.71 75.22V76.8V79.44V82.08V84.72Z" fill="#B40F2C"/>
<path d="M26.38 3.15001C43.8 3.15001 54.52 20.66 46.47 36.15C42.32 44.15 26.33 60.58 26.33 60.58C26.33 60.58 7.51002 44.23 4.15002 34.22C-1.11998 18.52 9.75002 3.11001 26.38 3.15001Z" stroke="#746761" stroke-width="5" stroke-miterlimit="10"/>
<path d="M26 34.19C30.3796 34.19 33.93 30.6396 33.93 26.26C33.93 21.8804 30.3796 18.33 26 18.33C21.6204 18.33 18.07 21.8804 18.07 26.26C18.07 30.6396 21.6204 34.19 26 34.19Z" fill="#B40F2C"/>
</svg>
