<svg width="70" height="70" viewBox="0 0 70 70" fill="none" xmlns="http://www.w3.org/2000/svg">
<path d="M28.72 23.55C28.4333 24.1658 28.1991 24.8048 28.02 25.46C27.8394 26.1148 27.7156 26.784 27.65 27.46L25.87 28.18L44.22 46.54L44.8 45.23C46.1481 45.0699 47.4693 44.7337 48.73 44.23L53.13 47.65C53.3326 47.7967 53.581 47.8662 53.8303 47.846C54.0796 47.8259 54.3136 47.7174 54.49 47.54L60.49 41.77C60.6588 41.5929 60.7617 41.3633 60.7818 41.1195C60.8018 40.8756 60.7376 40.6323 60.6 40.43L57.31 35.93C57.5958 35.308 57.8267 34.6622 58 34C58.1863 33.3433 58.3299 32.6753 58.43 32L63.56 29.9C63.7928 29.8118 63.9843 29.64 64.0972 29.418C64.21 29.1961 64.2359 28.9401 64.17 28.7L62.17 20.65C62.1235 20.4007 61.9841 20.1783 61.7799 20.0279C61.5756 19.8775 61.3219 19.8104 61.07 19.84L55.52 20.42C54.7235 19.318 53.7778 18.3319 52.71 17.49L53.47 11.99C53.5107 11.7446 53.4584 11.4929 53.3234 11.2839C53.1884 11.075 52.9804 10.9238 52.74 10.86L44.74 8.57002C44.4993 8.50581 44.2437 8.52762 44.0173 8.63167C43.791 8.73573 43.608 8.91551 43.5 9.14002L41.24 14.22C39.8917 14.3789 38.5703 14.7151 37.31 15.22L32.9 11.8C32.6974 11.6534 32.449 11.5838 32.1997 11.604C31.9504 11.6242 31.7164 11.7327 31.54 11.91L25.54 17.68C25.3584 17.8498 25.2465 18.081 25.2262 18.3288C25.2059 18.5765 25.2785 18.8229 25.43 19.02L28.72 23.55ZM35.51 27.6C35.9332 26.1164 36.7868 24.7917 37.9629 23.7933C39.139 22.7948 40.5848 22.1676 42.1174 21.9909C43.65 21.8142 45.2006 22.0959 46.573 22.8005C47.9455 23.5051 49.0782 24.6008 49.8279 25.9492C50.5776 27.2975 50.9106 28.8379 50.7849 30.3755C50.6591 31.9131 50.0802 33.3789 49.1213 34.5875C48.1624 35.796 46.8667 36.6931 45.398 37.1653C43.9293 37.6374 42.3535 37.6635 40.87 37.24C38.884 36.6677 37.2053 35.3324 36.2009 33.526C35.1966 31.7196 34.9481 29.589 35.51 27.6V27.6Z" fill="#B40F2C"/>
<path d="M4.40001 10.09L59.17 64.87H4.40001V10.09ZM0.200012 0V69.07H69.31L62.14 61.9L7.37001 7.12L0.200012 0Z" fill="#746761"/>
<path d="M18.52 42.41L27 50.87H18.52V42.41ZM14.32 32.27V55.07H37.12L14.32 32.27V32.27Z" fill="#746761"/>
</svg>
