<svg width="66" height="80" viewBox="0 0 66 80" fill="none" xmlns="http://www.w3.org/2000/svg">
<path d="M26.84 63.34H3.40002V3.07999H53.99V40.62" stroke="#746761" stroke-width="5" stroke-miterlimit="10"/>
<path d="M14.88 22.95H41.12" stroke="#746761" stroke-width="5" stroke-linejoin="bevel"/>
<path d="M14.88 34.84H33.32" stroke="#746761" stroke-width="5" stroke-linejoin="bevel"/>
<path d="M50.14 47.65C47.0368 47.65 44.0033 48.5702 41.4231 50.2942C38.8429 52.0183 36.8319 54.4687 35.6444 57.3357C34.4568 60.2027 34.1461 63.3574 34.7515 66.401C35.3569 69.4445 36.8512 72.2402 39.0455 74.4345C41.2398 76.6288 44.0355 78.1231 47.0791 78.7285C50.1226 79.3339 53.2773 79.0232 56.1443 77.8357C59.0113 76.6481 61.4617 74.6371 63.1858 72.0569C64.9098 69.4767 65.83 66.4432 65.83 63.34C65.83 59.1787 64.177 55.1879 61.2345 52.2455C58.2921 49.303 54.3013 47.65 50.14 47.65V47.65ZM51.4 72.23H48.89L40 63.33L42.8 60.53L48.17 65.91V54.45H52.17V65.91L57.55 60.53L60.35 63.33L51.4 72.23Z" fill="#B40F2C"/>
</svg>
