<svg id="Layer_1" data-name="Layer 1" xmlns="http://www.w3.org/2000/svg" viewBox="0 0 621.05 100.59"><defs><style>.cls-1{fill:none;}.cls-2{fill:#fff;}.cls-3{fill:#aa2d29;}.cls-4{fill:#907e72;}</style></defs><path class="cls-1" d="M389,59.81c-3.66.06-6.27.61-7.85,1.69a5.39,5.39,0,0,0-2.49,4.69,5.17,5.17,0,0,0,3.11,4.93,17.29,17.29,0,0,0,7.45,1.53,45.29,45.29,0,0,0,4.75-.32,43.46,43.46,0,0,0,4.65-.82V60.58c-1.37-.19-3-.37-4.85-.53S390.41,59.83,389,59.81Z"/><path class="cls-2" d="M98.86,65.8l-24-17.47c-1.91-1.39-3.75-1.69-5.83.33L44.79,72a1.54,1.54,0,0,1-2.72-1.07V0H18.72V61.37a8,8,0,0,0,3.11,6.16L38.91,80c2.3,1.68,5.79,1.83,7.73,0L63.58,63.59a2.39,2.39,0,0,1,3-.2L89.31,80c2.42,1.76,5.89,1.74,7.75,0L107.4,70V60.22l-5.58,5.37A2.39,2.39,0,0,1,98.86,65.8Z"/><path class="cls-3" d="M89.31,80,66.54,63.39a2.39,2.39,0,0,0-3,.2L46.64,79.91c-1.94,1.87-5.43,1.72-7.73,0L21.83,67.53a8,8,0,0,1-3.11-6.16V0H9.34A9.34,9.34,0,0,0,0,9.35V84.06A9.34,9.34,0,0,0,9.34,93.4H98.06a9.34,9.34,0,0,0,9.34-9.34V70l-10.34,10C95.2,81.69,91.73,81.71,89.31,80Z"/><path class="cls-3" d="M98.06,0h-56V70.92A1.54,1.54,0,0,0,44.79,72L69,48.66c2.08-2,3.92-1.72,5.83-.33l24,17.47a2.39,2.39,0,0,0,3-.21l5.58-5.37V9.35A9.34,9.34,0,0,0,98.06,0Z"/><path class="cls-4" d="M464.87,31.2h-9.94c-1,0-1.45.45-1.45,1.35V71.22a21.91,21.91,0,0,1-4.28.86,45.54,45.54,0,0,1-4.67.28A19.53,19.53,0,0,1,440,71.8a8.87,8.87,0,0,1-3.67-1.94,8.35,8.35,0,0,1-2.26-3.67,18,18,0,0,1-.79-5.7V32.55c0-.9-.47-1.35-1.43-1.35h-9.95c-1,0-1.55.45-1.55,1.35V60.68a25.64,25.64,0,0,0,1.71,9.91A17.14,17.14,0,0,0,427,77.35a19.46,19.46,0,0,0,7.5,3.87,35.91,35.91,0,0,0,9.61,1.2,59.83,59.83,0,0,0,11.57-1,50.54,50.54,0,0,0,9.63-2.85,1.74,1.74,0,0,0,1.13-1.74V32.55C466.41,31.65,465.89,31.2,464.87,31.2Z"/><path class="cls-4" d="M355.76,12.16H345.31a1.29,1.29,0,0,0-1.45,1.45V41H315.64V13.61a1.29,1.29,0,0,0-1.45-1.45H303.73a1.28,1.28,0,0,0-1.44,1.45V79.82a1.28,1.28,0,0,0,1.44,1.44h10.46a1.28,1.28,0,0,0,1.45-1.44V51.69h28.22V79.82a1.28,1.28,0,0,0,1.45,1.44h10.45a1.28,1.28,0,0,0,1.45-1.44V13.61A1.28,1.28,0,0,0,355.76,12.16Z"/><path class="cls-4" d="M568.28,31.2h-9.83c-1,0-1.54.45-1.54,1.35V67.73A19.57,19.57,0,0,1,544,69.14a11.15,11.15,0,0,1-3.71-1.69,8.69,8.69,0,0,1-2.59-3.1,10.33,10.33,0,0,1-1-4.74V32.55c0-.9-.49-1.35-1.45-1.35h-9.94c-1,0-1.55.45-1.55,1.35V60.09a18.28,18.28,0,0,0,2,8.72,19.48,19.48,0,0,0,5.09,6.12,20.72,20.72,0,0,0,7.07,3.68,30.42,30.42,0,0,0,8.94,1.21,34.3,34.3,0,0,0,5.74-.49,41.54,41.54,0,0,0,4.41-1,19.21,19.21,0,0,1-.63,5.81A9,9,0,0,1,554.22,88a7.83,7.83,0,0,1-3.63,2,18.08,18.08,0,0,1-4.47.57A21.73,21.73,0,0,1,539,89.38a54.31,54.31,0,0,1-7.1-3.44,1.47,1.47,0,0,0-1.92.37l-4.73,6.26a1.2,1.2,0,0,0,.32,1.93,27.85,27.85,0,0,0,8.84,4.6,41.21,41.21,0,0,0,12.35,1.49q11.9,0,17.48-5.64t5.59-16.88V32.55Q569.84,31.2,568.28,31.2Z"/><path class="cls-4" d="M405.56,34.73a18.78,18.78,0,0,0-6.83-3.53,27.33,27.33,0,0,0-4.3-.88,44.85,44.85,0,0,0-16.8,1.07,30.83,30.83,0,0,0-8.85,3.77c-.47.38-.47.94,0,1.65l4.55,6.45a1.15,1.15,0,0,0,1.42.34,43.78,43.78,0,0,1,7.06-2.74,30.47,30.47,0,0,1,6.92-.87c3.59.08,6.12.82,7.57,2.27s2.27,4,2.27,7.5v1.72c-1.31-.14-2.68-.29-4.13-.42-1.79-.16-3.54-.24-5.27-.24a46.58,46.58,0,0,0-10.06.92A22.36,22.36,0,0,0,372,54.59a13,13,0,0,0-6.36,11.69,14.14,14.14,0,0,0,1.92,7.64,14.49,14.49,0,0,0,5.1,5A23.48,23.48,0,0,0,380,81.6a48.85,48.85,0,0,0,9.64.82,73,73,0,0,0,11.26-.86,83.61,83.61,0,0,0,9.52-2,1.69,1.69,0,0,0,1.13-1.65V49.66A23.23,23.23,0,0,0,410,40.81,15.73,15.73,0,0,0,405.56,34.73Zm-7,36.78a43.46,43.46,0,0,1-4.65.82,45.29,45.29,0,0,1-4.75.32,17.29,17.29,0,0,1-7.45-1.53,5.17,5.17,0,0,1-3.11-4.93,5.39,5.39,0,0,1,2.49-4.69c1.58-1.08,4.19-1.63,7.85-1.69q2.19,0,4.77.24c1.86.16,3.48.34,4.85.53Z"/><path class="cls-4" d="M511.39,55.22a22,22,0,0,0-6.21-2.51c-2.27-.55-4.47-1-6.62-1.41-1.71-.31-3.29-.64-4.71-1a22.76,22.76,0,0,1-3.62-1.11,6.13,6.13,0,0,1-2.33-1.64,3.87,3.87,0,0,1-.82-2.47,4.38,4.38,0,0,1,2.38-3.87,13.26,13.26,0,0,1,6.61-1.44,27.69,27.69,0,0,1,6.37.86,45.88,45.88,0,0,1,7.15,2.7,1.47,1.47,0,0,0,1.88-.5l4.15-6.55a1.17,1.17,0,0,0-.52-1.93A41.65,41.65,0,0,0,506,31a37.46,37.46,0,0,0-8.89-1.07,41,41,0,0,0-9,.87,24.1,24.1,0,0,0-7,2.71,14.79,14.79,0,0,0-5,4.69,12.28,12.28,0,0,0-1.86,6.91,11.75,11.75,0,0,0,2.17,7.25,16.92,16.92,0,0,0,5.37,4.68,28.21,28.21,0,0,0,6.84,2.71c2.41.61,4.58,1.07,6.51,1.41,1.18.18,2.33.41,3.46.67a15.87,15.87,0,0,1,3.1,1,6.29,6.29,0,0,1,2.22,1.6,3.57,3.57,0,0,1,.84,2.42,4.51,4.51,0,0,1-2.8,4.2,14.76,14.76,0,0,1-6.38,1.39A27.55,27.55,0,0,1,488,71.22a38.67,38.67,0,0,1-8.48-4.15,1.24,1.24,0,0,0-1.76.36l-4.24,6.78a1.19,1.19,0,0,0,.41,1.94A34.21,34.21,0,0,0,484.29,81a43.41,43.41,0,0,0,15.8,1.24,32.51,32.51,0,0,0,4.41-.76,20.28,20.28,0,0,0,6.93-3,15.11,15.11,0,0,0,4.67-5,14.11,14.11,0,0,0,1.7-7.06A11.74,11.74,0,0,0,516,59.57,14.79,14.79,0,0,0,511.39,55.22Z"/><path class="cls-4" d="M619.24,59.57a14.71,14.71,0,0,0-4.6-4.35,21.87,21.87,0,0,0-6.21-2.51c-2.28-.55-4.47-1-6.61-1.41-1.73-.31-3.29-.64-4.71-1a22.44,22.44,0,0,1-3.62-1.11,6.1,6.1,0,0,1-2.34-1.64,3.92,3.92,0,0,1-.81-2.47,4.37,4.37,0,0,1,2.37-3.87,13.33,13.33,0,0,1,6.62-1.44,27.68,27.68,0,0,1,6.36.86,46.26,46.26,0,0,1,7.15,2.7,1.46,1.46,0,0,0,1.88-.5l4.17-6.55a1.18,1.18,0,0,0-.53-1.93A42.49,42.49,0,0,0,609.25,31a37.44,37.44,0,0,0-8.88-1.07,41.34,41.34,0,0,0-9,.87,23.93,23.93,0,0,0-7,2.71,14.7,14.7,0,0,0-5,4.69,12.36,12.36,0,0,0-1.86,6.91,11.88,11.88,0,0,0,2.16,7.25,17,17,0,0,0,5.39,4.68,27.91,27.91,0,0,0,6.82,2.71c2.41.61,4.6,1.07,6.52,1.41,1.17.18,2.35.41,3.47.67a16.33,16.33,0,0,1,3.1,1,6.29,6.29,0,0,1,2.22,1.6,3.61,3.61,0,0,1,.83,2.42,4.5,4.5,0,0,1-2.8,4.2,14.69,14.69,0,0,1-6.38,1.39,27.55,27.55,0,0,1-7.58-1.24,38.4,38.4,0,0,1-8.47-4.15,1.24,1.24,0,0,0-1.76.36l-4.24,6.78a1.19,1.19,0,0,0,.41,1.94A34.33,34.33,0,0,0,587.53,81a43.55,43.55,0,0,0,15.82,1.24,32.78,32.78,0,0,0,4.41-.76,20.45,20.45,0,0,0,6.93-3,15.19,15.19,0,0,0,4.66-5,14.11,14.11,0,0,0,1.7-7.06A11.89,11.89,0,0,0,619.24,59.57Z"/><path class="cls-4" d="M219.17,43.27,229,31.57s-7.23-8.63-13.8-16.45a9.47,9.47,0,0,0-6.36-3H195a.93.93,0,0,0-.69,1.48Z"/><path class="cls-4" d="M241.68,46.69l27.73-33.06a.93.93,0,0,0-.67-1.48H254.92a9.43,9.43,0,0,0-6.38,3c-9.46,11.26-25.84,30.79-54.25,64.66a.93.93,0,0,0,.69,1.48H208.8a9.4,9.4,0,0,0,6.36-3l16.71-19.9,16.7,19.9a9.4,9.4,0,0,0,6.36,3h13.81a.93.93,0,0,0,.7-1.48Z"/><path class="cls-4" d="M197.88,66.33H156.43A2.34,2.34,0,0,1,154.1,64V14.48a2.33,2.33,0,0,0-2.33-2.33h-14a2.33,2.33,0,0,0-2.34,2.33V71.92a9.35,9.35,0,0,0,9.34,9.34H183.4a7.88,7.88,0,0,0,6.38-3l8.78-10.47A.94.94,0,0,0,197.88,66.33Z"/></svg>