<svg width="76" height="70" viewBox="0 0 76 70" fill="none" xmlns="http://www.w3.org/2000/svg"><path d="M45.45 64.95l-4.69-19.48 3.36-7.73H31.89l3.35 7.73-4.69 19.48h14.9z" fill="#B40F2C"/><path d="M38 36.07c9.262 0 16.77-7.508 16.77-16.77S47.262 2.53 38 2.53 21.23 10.038 21.23 19.3 28.738 36.07 38 36.07zm8.65.34c7.52 1.73 15.22 4.2 19.88 9.51 4.66 5.31 6.28 13.61 6.28 20.89H3.19c0-7.28 1.62-15.57 6.28-20.89s12.36-7.78 19.88-9.51h17.3z" stroke="#746761" stroke-width="5" stroke-miterlimit="10"/></svg>