<svg width="76" height="85" viewBox="0 0 76 85" fill="none" xmlns="http://www.w3.org/2000/svg"><path d="M64.68 63.01a4.37 4.37 0 100-8.74 4.37 4.37 0 000 8.74z" fill="#B40F2C"/><path d="M32.16 37.58c9.566 0 17.32-7.754 17.32-17.32S41.726 2.94 32.16 2.94c-9.565 0-17.32 7.754-17.32 17.32s7.755 17.32 17.32 17.32z" stroke="#746761" stroke-width="5" stroke-linejoin="bevel"/><path d="M52.74 52.28c6.45 0 11.68-5.23 11.68-11.68 0-6.45-5.23-11.68-11.68-11.68-6.45 0-11.68 5.23-11.68 11.68 0 6.45 5.23 11.68 11.68 11.68zm-40.02 7.28a9.28 9.28 0 100-18.56 9.28 9.28 0 000 18.56zm40.86 22.37a8.16 8.16 0 100-16.32 8.16 8.16 0 000 16.32z" stroke="#746761" stroke-width="5" stroke-linejoin="bevel"/><path d="M41.92 60.61l-5.1 4.32-4.32 5.1-4.31-5.1-5.1-4.32 5.1-4.31 4.31-5.1 4.32 5.1 5.1 4.31zm33.42-42.99l-4.56 3.86-3.86 4.56-3.86-4.56-4.57-3.86 4.57-3.87 3.86-4.56 3.86 4.56 4.56 3.87z" fill="#B40F2C"/></svg>