<svg id="Layer_1" data-name="Layer 1" xmlns="http://www.w3.org/2000/svg" viewBox="0 0 621.05 100.59"><defs><style>.cls-3{fill:#aa2d29}</style></defs><path d="M389 59.81c-3.66.06-6.27.61-7.85 1.69a5.39 5.39 0 00-2.49 4.69 5.17 5.17 0 003.11 4.93 17.29 17.29 0 007.45 1.53 45.29 45.29 0 004.75-.32 43.46 43.46 0 004.65-.82V60.58c-1.37-.19-3-.37-4.85-.53s-3.36-.22-4.77-.24z" fill="none"/><path d="M98.86 65.8l-24-17.47c-1.91-1.39-3.75-1.69-5.83.33L44.79 72a1.54 1.54 0 01-2.72-1.07V0H18.72v61.37a8 8 0 003.11 6.16L38.91 80c2.3 1.68 5.79 1.83 7.73 0l16.94-16.41a2.39 2.39 0 013-.2L89.31 80c2.42 1.76 5.89 1.74 7.75 0l10.34-10v-9.78l-5.58 5.37a2.39 2.39 0 01-2.96.21z" fill="#fff"/><path class="cls-3" d="M89.31 80L66.54 63.39a2.39 2.39 0 00-3 .2l-16.9 16.32c-1.94 1.87-5.43 1.72-7.73 0L21.83 67.53a8 8 0 01-3.11-6.16V0H9.34A9.34 9.34 0 000 9.35v74.71a9.34 9.34 0 009.34 9.34h88.72a9.34 9.34 0 009.34-9.34V70L97.06 80c-1.86 1.69-5.33 1.71-7.75 0z"/><path class="cls-3" d="M98.06 0h-56v70.92A1.54 1.54 0 0044.79 72L69 48.66c2.08-2 3.92-1.72 5.83-.33l24 17.47a2.39 2.39 0 003-.21l5.58-5.37V9.35A9.34 9.34 0 0098.06 0z"/><path d="M464.87 31.2h-9.94c-1 0-1.45.45-1.45 1.35v38.67a21.91 21.91 0 01-4.28.86 45.54 45.54 0 01-4.67.28 19.53 19.53 0 01-4.53-.56 8.87 8.87 0 01-3.67-1.94 8.35 8.35 0 01-2.26-3.67 18 18 0 01-.79-5.7V32.55c0-.9-.47-1.35-1.43-1.35h-9.95c-1 0-1.55.45-1.55 1.35v28.13a25.64 25.64 0 001.71 9.91 17.14 17.14 0 004.94 6.76 19.46 19.46 0 007.5 3.87 35.91 35.91 0 009.61 1.2 59.83 59.83 0 0011.57-1 50.54 50.54 0 009.63-2.85 1.74 1.74 0 001.13-1.74V32.55c-.03-.9-.55-1.35-1.57-1.35zM355.76 12.16h-10.45a1.29 1.29 0 00-1.45 1.45V41h-28.22V13.61a1.29 1.29 0 00-1.45-1.45h-10.46a1.28 1.28 0 00-1.44 1.45v66.21a1.28 1.28 0 001.44 1.44h10.46a1.28 1.28 0 001.45-1.44V51.69h28.22v28.13a1.28 1.28 0 001.45 1.44h10.45a1.28 1.28 0 001.45-1.44V13.61a1.28 1.28 0 00-1.45-1.45zM568.28 31.2h-9.83c-1 0-1.54.45-1.54 1.35v35.18A19.57 19.57 0 01544 69.14a11.15 11.15 0 01-3.71-1.69 8.69 8.69 0 01-2.59-3.1 10.33 10.33 0 01-1-4.74V32.55c0-.9-.49-1.35-1.45-1.35h-9.94c-1 0-1.55.45-1.55 1.35v27.54a18.28 18.28 0 002 8.72 19.48 19.48 0 005.09 6.12 20.72 20.72 0 007.07 3.68 30.42 30.42 0 008.94 1.21 34.3 34.3 0 005.74-.49 41.54 41.54 0 004.41-1 19.21 19.21 0 01-.63 5.81 9 9 0 01-2.16 3.86 7.83 7.83 0 01-3.63 2 18.08 18.08 0 01-4.47.57 21.73 21.73 0 01-7.12-1.19 54.31 54.31 0 01-7.1-3.44 1.47 1.47 0 00-1.92.37l-4.73 6.26a1.2 1.2 0 00.32 1.93 27.85 27.85 0 008.84 4.6 41.21 41.21 0 0012.35 1.49q11.9 0 17.48-5.64t5.59-16.88V32.55q.01-1.35-1.55-1.35zm-162.72 3.53a18.78 18.78 0 00-6.83-3.53 27.33 27.33 0 00-4.3-.88 44.85 44.85 0 00-16.8 1.07 30.83 30.83 0 00-8.85 3.77c-.47.38-.47.94 0 1.65l4.55 6.45a1.15 1.15 0 001.42.34 43.78 43.78 0 017.06-2.74 30.47 30.47 0 016.92-.87c3.59.08 6.12.82 7.57 2.27s2.27 4 2.27 7.5v1.72c-1.31-.14-2.68-.29-4.13-.42-1.79-.16-3.54-.24-5.27-.24a46.58 46.58 0 00-10.06.92 22.36 22.36 0 00-7.11 2.85 13 13 0 00-6.36 11.69 14.14 14.14 0 001.92 7.64 14.49 14.49 0 005.1 5A23.48 23.48 0 00380 81.6a48.85 48.85 0 009.64.82 73 73 0 0011.26-.86 83.61 83.61 0 009.52-2 1.69 1.69 0 001.13-1.65V49.66a23.23 23.23 0 00-1.55-8.85 15.73 15.73 0 00-4.44-6.08zm-7 36.78a43.46 43.46 0 01-4.65.82 45.29 45.29 0 01-4.75.32 17.29 17.29 0 01-7.45-1.53 5.17 5.17 0 01-3.11-4.93 5.39 5.39 0 012.49-4.69c1.58-1.08 4.19-1.63 7.85-1.69q2.19 0 4.77.24c1.86.16 3.48.34 4.85.53zm112.83-16.29a22 22 0 00-6.21-2.51c-2.27-.55-4.47-1-6.62-1.41-1.71-.31-3.29-.64-4.71-1a22.76 22.76 0 01-3.62-1.11 6.13 6.13 0 01-2.33-1.64 3.87 3.87 0 01-.82-2.47 4.38 4.38 0 012.38-3.87 13.26 13.26 0 016.61-1.44 27.69 27.69 0 016.37.86 45.88 45.88 0 017.15 2.7 1.47 1.47 0 001.88-.5l4.15-6.55a1.17 1.17 0 00-.52-1.93A41.65 41.65 0 00506 31a37.46 37.46 0 00-8.89-1.07 41 41 0 00-9 .87 24.1 24.1 0 00-7 2.71 14.79 14.79 0 00-5 4.69 12.28 12.28 0 00-1.86 6.91 11.75 11.75 0 002.17 7.25 16.92 16.92 0 005.37 4.68 28.21 28.21 0 006.84 2.71c2.41.61 4.58 1.07 6.51 1.41 1.18.18 2.33.41 3.46.67a15.87 15.87 0 013.1 1 6.29 6.29 0 012.22 1.6 3.57 3.57 0 01.84 2.42 4.51 4.51 0 01-2.8 4.2 14.76 14.76 0 01-6.38 1.39 27.55 27.55 0 01-7.58-1.22 38.67 38.67 0 01-8.48-4.15 1.24 1.24 0 00-1.76.36l-4.24 6.78a1.19 1.19 0 00.41 1.94A34.21 34.21 0 00484.29 81a43.41 43.41 0 0015.8 1.24 32.51 32.51 0 004.41-.76 20.28 20.28 0 006.93-3 15.11 15.11 0 004.67-5 14.11 14.11 0 001.7-7.06 11.74 11.74 0 00-1.8-6.85 14.79 14.79 0 00-4.61-4.35zm107.85 4.35a14.71 14.71 0 00-4.6-4.35 21.87 21.87 0 00-6.21-2.51c-2.28-.55-4.47-1-6.61-1.41-1.73-.31-3.29-.64-4.71-1a22.44 22.44 0 01-3.62-1.11 6.1 6.1 0 01-2.34-1.64 3.92 3.92 0 01-.81-2.47 4.37 4.37 0 012.37-3.87 13.33 13.33 0 016.62-1.44 27.68 27.68 0 016.36.86 46.26 46.26 0 017.15 2.7 1.46 1.46 0 001.88-.5l4.17-6.55a1.18 1.18 0 00-.53-1.93 42.49 42.49 0 00-9.11-3.35 37.44 37.44 0 00-8.88-1.07 41.34 41.34 0 00-9 .87 23.93 23.93 0 00-7 2.71 14.7 14.7 0 00-5 4.69 12.36 12.36 0 00-1.86 6.91 11.88 11.88 0 002.16 7.25 17 17 0 005.39 4.68 27.91 27.91 0 006.82 2.71c2.41.61 4.6 1.07 6.52 1.41 1.17.18 2.35.41 3.47.67a16.33 16.33 0 013.1 1 6.29 6.29 0 012.22 1.6 3.61 3.61 0 01.83 2.42 4.5 4.5 0 01-2.8 4.2 14.69 14.69 0 01-6.38 1.39 27.55 27.55 0 01-7.58-1.24 38.4 38.4 0 01-8.47-4.15 1.24 1.24 0 00-1.76.36l-4.24 6.78a1.19 1.19 0 00.41 1.94A34.33 34.33 0 00587.53 81a43.55 43.55 0 0015.82 1.24 32.78 32.78 0 004.41-.76 20.45 20.45 0 006.93-3 15.19 15.19 0 004.66-5 14.11 14.11 0 001.7-7.06 11.89 11.89 0 00-1.81-6.85zm-400.07-16.3l9.83-11.7s-7.23-8.63-13.8-16.45a9.47 9.47 0 00-6.36-3H195a.93.93 0 00-.69 1.48zm22.51 3.42l27.73-33.06a.93.93 0 00-.67-1.48h-13.82a9.43 9.43 0 00-6.38 3c-9.46 11.26-25.84 30.79-54.25 64.66a.93.93 0 00.69 1.48h13.82a9.4 9.4 0 006.36-3l16.71-19.9 16.7 19.9a9.4 9.4 0 006.36 3h13.81a.93.93 0 00.7-1.48zm-43.8 19.64h-41.45A2.34 2.34 0 01154.1 64V14.48a2.33 2.33 0 00-2.33-2.33h-14a2.33 2.33 0 00-2.34 2.33v57.44a9.35 9.35 0 009.34 9.34h38.63a7.88 7.88 0 006.38-3l8.78-10.47a.94.94 0 00-.68-1.46z" fill="#907e72"/></svg>